<svg xmlns="http://www.w3.org/2000/svg" xmlns:xlink="http://www.w3.org/1999/xlink" width="48" height="48" viewBox="0 0 48 48"><defs><linearGradient id="a" x1="0.5" y1="1" x2="0.5" gradientUnits="objectBoundingBox"><stop offset="0" stop-color="#fd5900"/><stop offset="1" stop-color="#ffde00"/></linearGradient></defs><g transform="translate(0)"><g transform="translate(0)"><path d="M47.886,26.257a1.406,1.406,0,0,0-.773-.751L33.844,20.233V15.563a1.406,1.406,0,0,0-.626-1.17L25.407,9.185V5.625h1.406a1.406,1.406,0,0,0,0-2.813H25.407V1.406a1.406,1.406,0,0,0-2.813,0V2.813H21.188a1.406,1.406,0,0,0,0,2.813h1.406v3.56l-7.811,5.208a1.406,1.406,0,0,0-.626,1.17v4.671L.887,25.506A1.406,1.406,0,0,0,.1,27.335L2.19,32.557a1.406,1.406,0,0,0,1.824.785l1.7-.677V46.594A1.406,1.406,0,0,0,7.125,48h33.75a1.406,1.406,0,0,0,1.406-1.406V32.666l1.7.677a1.406,1.406,0,0,0,1.824-.785L47.9,27.335A1.406,1.406,0,0,0,47.886,26.257ZM4.28,30.211,3.236,27.6l10.921-4.339v3.031ZM28.219,45.188H19.782V38.063a4.219,4.219,0,1,1,8.438,0Zm11.25,0H31.032V38.063a7.031,7.031,0,1,0-14.063,0v7.125H8.532V31.549l7.55-3a1.406,1.406,0,0,0,.887-1.307V16.315L24,11.628l7.031,4.688V27.246a1.406,1.406,0,0,0,.887,1.307l7.55,3Zm4.251-14.977-9.876-3.92V23.259L44.765,27.6ZM24,16.969a4.219,4.219,0,1,0,4.219,4.219A4.224,4.224,0,0,0,24,16.969Zm0,5.625a1.406,1.406,0,1,1,1.406-1.406A1.408,1.408,0,0,1,24,22.594ZM12.75,33.844a1.406,1.406,0,0,0-1.406,1.406v5.719a1.406,1.406,0,1,0,2.813,0V35.25A1.406,1.406,0,0,0,12.75,33.844Zm22.5,8.531a1.406,1.406,0,0,0,1.406-1.406V35.25a1.406,1.406,0,1,0-2.813,0v5.719A1.406,1.406,0,0,0,35.25,42.375Z" transform="translate(0)" fill="url(#a)"/></g></g></svg>